<?xml version="1.0" encoding="utf-8"?>
<!-- Generator: Adobe Illustrator 27.8.1, SVG Export Plug-In . SVG Version: 6.00 Build 0)  -->
<svg version="1.1" id="Capa_1" xmlns="http://www.w3.org/2000/svg" xmlns:xlink="http://www.w3.org/1999/xlink" x="0px" y="0px"
	 viewBox="0 0 595.28 841.89" style="enable-background:new 0 0 595.28 841.89;" xml:space="preserve">
<style type="text/css">
	.st0{fill-rule:evenodd;clip-rule:evenodd;fill:#A4185B;}
	.st1{fill-rule:evenodd;clip-rule:evenodd;fill:#F59D0A;}
</style>
<g>
	<path class="st0" d="M456.6,332.28c0-38.21-31.03-69.24-69.24-69.24H193.95c-38.21,0-69.24,31.03-69.24,69.24v158.79
		c0,38.21,31.03,69.24,69.24,69.24h193.41c38.21,0,69.24-31.03,69.24-69.24V332.28L456.6,332.28z"/>
	<path class="st1" d="M124.71,243.34L152,318.81l27.05-55.77l6.2,64.36l39.1-52.78l-2.65,64.11l44.73-45.46l-12.74,64.54
		l50.63-39.65l-21.47,63.47l59.4-33.26l-32.53,58.67l62.87-22.9L332.4,437.9l65.44-14.22L350.2,470.7l66.45-4.3l-54.59,39.42
		l67.8,7.28l-61.67,27.88l49.74,12.23c-9.21,4.54-19.58,7.1-30.54,7.1H193.91c-38.19,0-69.2-31.01-69.2-69.2V243.34L124.71,243.34z"
		/>
</g>
</svg>
