<svg id="IF_NOX" data-name="IF NOX" xmlns="http://www.w3.org/2000/svg" width="415.447" height="158.738" viewBox="0 0 415.447 158.738">
  <path id="Trazado_1" data-name="Trazado 1" d="M440.818,25.758a1.431,1.431,0,0,1,1.426-1.436h19.25a1.432,1.432,0,0,1,1.426,1.436v153.71a1.432,1.432,0,0,1-1.426,1.436h-19.25a1.431,1.431,0,0,1-1.426-1.436Z" transform="translate(-217.651 -23.603)" fill="#206488"/>
  <path id="Trazado_2" data-name="Trazado 2" d="M420.728,30.524a1.8,1.8,0,0,0-1.143,2.263l47.248,146.494a1.781,1.781,0,0,0,2.079,1.2h18.928a1.432,1.432,0,0,0,1.426-1.436v-2.286a1.437,1.437,0,0,0-.072-.446L470.465,118.48,440.606,25.906a1.78,1.78,0,0,0-2.247-1.153Z" transform="translate(-243.997 -23.178)" fill="#0799b6" fill-rule="evenodd"/>
  <path id="Trazado_3" data-name="Trazado 3" d="M418.813,26.079a1.432,1.432,0,0,1,1.426-1.436h19.252a1.43,1.43,0,0,1,1.424,1.436v153.71a1.43,1.43,0,0,1-1.424,1.437H420.239a1.432,1.432,0,0,1-1.426-1.437Z" transform="translate(-244.843 -23.206)" fill="#7adade"/>
  <path id="Trazado_4" data-name="Trazado 4" d="M495.734,24a40.077,40.077,0,0,0-39.928,40.223v78.292a39.929,39.929,0,1,0,79.856,0V64.223A40.077,40.077,0,0,0,495.734,24Zm.358,28.731a15.387,15.387,0,0,0-15.331,15.443v73.982a15.33,15.33,0,1,0,30.659,0V68.174A15.386,15.386,0,0,0,496.092,52.731Z" transform="translate(-199.129 -24)" fill="#f2e6cf" fill-rule="evenodd"/>
  <path id="Trazado_5" data-name="Trazado 5" d="M546.561,25.734a1.425,1.425,0,0,1,1.829-.859l18.089,6.633a1.44,1.44,0,0,1,.852,1.841l-52.54,145.418a1.422,1.422,0,0,1-1.827.859l-18.089-6.633a1.441,1.441,0,0,1-.854-1.841Z" transform="translate(-152.011 -23.025)" fill="#0799b6"/>
  <path id="Trazado_6" data-name="Trazado 6" d="M494.039,33.478a1.441,1.441,0,0,1,.854-1.841L512.983,25a1.422,1.422,0,0,1,1.827.859l52.54,145.418a1.44,1.44,0,0,1-.852,1.841l-18.089,6.633a1.425,1.425,0,0,1-1.829-.859Z" transform="translate(-151.989 -22.868)" fill="#7adade"/>
  <path id="Trazado_7" data-name="Trazado 7" d="M341,29.934a1.432,1.432,0,0,1,1.426-1.436h28.519a1.432,1.432,0,0,1,1.426,1.436v137.19a1.432,1.432,0,0,1-1.426,1.437H342.426A1.432,1.432,0,0,1,341,167.124Z" transform="translate(-341 -18.442)" fill="#f2e6cf"/>
  <path id="Trazado_8" data-name="Trazado 8" d="M369.383,29.934a1.431,1.431,0,0,1,1.426-1.436h71.3a1.432,1.432,0,0,1,1.426,1.436V51.482a1.432,1.432,0,0,1-1.426,1.437H400.755V87.4H430.7a1.43,1.43,0,0,1,1.424,1.436v19.393a1.43,1.43,0,0,1-1.424,1.437H400.755v57.462a1.432,1.432,0,0,1-1.426,1.437H370.809a1.431,1.431,0,0,1-1.426-1.437V29.934Z" transform="translate(-305.926 -18.442)" fill="#f2e6cf" fill-rule="evenodd"/>
</svg>
